<?xml version="1.0" standalone="no"?>
<!DOCTYPE svg PUBLIC "-//W3C//DTD SVG 20010904//EN"
 "http://www.w3.org/TR/2001/REC-SVG-20010904/DTD/svg10.dtd">
<svg version="1.0" xmlns="http://www.w3.org/2000/svg"
 width="800.000000pt" height="600.000000pt" viewBox="0 0 800.000000 600.000000"
 preserveAspectRatio="xMidYMid meet">

<g transform="translate(0.000000,600.000000) scale(0.100000,-0.100000)"
fill="#000000" stroke="none">
<path d="M3415 4176 c-64 -21 -102 -44 -145 -88 -47 -49 -65 -93 -114 -283
-21 -77 -40 -148 -42 -158 -6 -18 20 -18 638 -14 608 3 648 5 735 24 159 36
257 80 334 150 22 20 39 31 39 27 0 -5 -14 -56 -31 -114 -16 -58 -48 -167 -70
-243 -45 -157 -65 -201 -116 -258 -44 -49 -97 -80 -183 -108 -159 -52 -180
-53 -780 -60 -546 -6 -566 -7 -611 -27 -58 -27 -114 -76 -144 -128 -14 -25
-76 -237 -160 -551 -75 -280 -138 -516 -140 -523 -4 -12 34 -13 217 -10 212 4
227 5 302 31 140 49 254 138 330 260 34 52 79 175 107 286 13 55 55 96 106
105 21 3 181 6 357 6 236 0 346 4 423 16 397 58 689 251 827 545 83 175 107
407 61 584 -74 282 -292 456 -658 522 -125 22 -1218 30 -1282 9z"/>
</g>
</svg>
